<svg xmlns="http://www.w3.org/2000/svg" viewBox="0 0 160 40" fill="none" role="img" aria-label="AEQUAN">
  <!-- Fluid infinite / loop mark  brand DNA -->
  <path
    d="M20 8C12 8 6 14 6 20s6 12 14 12c4 0 7.5-1.8 10-4.5-2 2.2-4.8 3.5-8 3.5-6.6 0-12-5.4-12-12S13.4 8 20 8c3.2 0 6 1.3 8 3.5C25.5 9.8 22 8 20 8Z"
    fill="#3D5A80"
  />
  <path
    d="M20 32c8 0 14-6 14-12S28 8 20 8c-4 0-7.5 1.8-10 4.5 2-2.2 4.8-3.5 8-3.5 6.6 0 12 5.4 12 12s-5.4 12-12 12c-3.2 0-6-1.3-8-3.5C14.5 30.2 18 32 20 32Z"
    fill="#567BA1"
    opacity="0.85"
  />
  <circle cx="20" cy="20" r="3" fill="#3D5A80"/>
  <!-- Wordmark -->
  <text x="44" y="27" font-family="system-ui, -apple-system, sans-serif" font-size="18" font-weight="600" letter-spacing="0.12em" fill="#2F4156">AEQUAN</text>
</svg>
